<svg xmlns="http://www.w3.org/2000/svg" xmlns:xlink="http://www.w3.org/1999/xlink" version="1.1" width="1000" height="1000" viewBox="0 0 1000 1000" xml:space="preserve">
<desc>Created with Fabric.js 3.5.0</desc>
<defs>
</defs>
<rect x="0" y="0" width="100%" height="100%" fill="rgba(255,255,255,0)"/>
<g transform="matrix(0 3.3634 -3.3634 0 500 500)" id="253022" clip-path="url(#CLIPPATH_18)">
<clipPath id="CLIPPATH_18">
	<rect transform="matrix(1 0 0 1 0 0.0003)" id="clip0_302_60" x="-79" y="-79" rx="0" ry="0" width="158" height="158"/>
</clipPath>
<path style="stroke: none; stroke-width: 0; stroke-dasharray: none; stroke-linecap: butt; stroke-dashoffset: 0; stroke-linejoin: miter; stroke-miterlimit: 4; is-custom-font: none; font-file-url: none; fill: rgb(189,70,194); fill-rule: nonzero; opacity: 1;" vector-effect="non-scaling-stroke" transform=" translate(-79, -78.9997)" d="M 155.762 70.7044 L 124.67 16.7491 C 121.674 11.5327 116.117 8.31686 110.102 8.31844 H 47.9186 C 41.9447 8.27481 36.3974 11.4081 33.3507 16.5467 L 2.25885 70.5021 C -0.753053 75.7188 -0.753053 82.1463 2.25885 87.363 L 33.3507 141.318 C 36.3737 146.499 41.9207 149.683 47.9186 149.681 H 110.102 C 116.058 149.725 121.596 146.623 124.67 141.521 L 155.762 87.5654 C 158.746 82.3414 158.746 75.9287 155.762 70.7044 Z" stroke-linecap="round"/>
</g>
<g transform="matrix(9.8818 0 0 9.8818 499.9999 499.9999)" id="680362">
<path style="stroke: none; stroke-width: 1; stroke-dasharray: none; stroke-linecap: butt; stroke-dashoffset: 0; stroke-linejoin: miter; stroke-miterlimit: 4; is-custom-font: none; font-file-url: none; fill: rgb(255,255,255); fill-rule: nonzero; opacity: 1;" vector-effect="non-scaling-stroke" transform=" translate(-9.5167, -10.0089)" d="M 8.915 3.541 c 0.29 -0.04 0.473 -0.034 0.613 -0.006 a 1.5 1.5 0 0 1 0.486 0.208 a 0.75 0.75 0 1 0 0.772 -1.286 a 2.977 2.977 0 0 0 -0.964 -0.392 c -0.359 -0.072 -0.724 -0.065 -1.128 -0.007 l -0.018 0.002 c -0.8 0.134 -1.427 0.547 -1.855 1.162 c -0.413 0.596 -0.613 1.34 -0.67 2.125 a 0.75 0.75 0 0 0 -0.001 0.053 v 0.008 l -0.001 0.024 l -0.003 0.083 l -0.013 0.27 c -0.01 0.222 -0.027 0.52 -0.046 0.872 l -0.005 0.093 H 4.8 a 0.75 0.75 0 0 0 0 1.5 h 1.195 l -0.057 0.968 a 417.373 417.373 0 0 1 -0.287 4.522 c -0.107 1.284 -0.22 2.138 -1.027 2.61 c -0.403 0.229 -1.019 0.215 -1.69 -0.12 a 0.75 0.75 0 0 0 -0.67 1.34 c 0.927 0.465 2.11 0.651 3.107 0.081 l 0.006 -0.003 c 1.533 -0.895 1.668 -2.55 1.76 -3.666 l 0.01 -0.12 v -0.005 c 0.059 -0.768 0.225 -3.46 0.35 -5.607 H 9.3 a 0.75 0.75 0 0 0 0 -1.5 H 7.584 c 0.037 -0.668 0.062 -1.156 0.065 -1.316 c 0.046 -0.606 0.195 -1.055 0.404 -1.356 c 0.197 -0.283 0.467 -0.47 0.862 -0.537 Z m 7.865 6.74 a 0.75 0.75 0 1 0 -1.06 -1.061 l -2.579 2.578 a 36.188 36.188 0 0 1 -0.76 -1.354 l -0.073 -0.116 c -0.153 -0.245 -0.381 -0.611 -0.658 -0.867 a 1.609 1.609 0 0 0 -0.736 -0.403 a 1.546 1.546 0 0 0 -0.957 0.101 a 0.75 0.75 0 0 0 -0.14 0.079 l -0.033 0.022 a 1.78 1.78 0 0 0 -0.283 0.233 c -0.045 0.047 -0.09 0.1 -0.132 0.149 l -0.022 0.026 l -0.164 0.19 a 0.75 0.75 0 0 0 1.134 0.983 l 0.173 -0.202 l 0.021 -0.025 c 0.042 -0.05 0.058 -0.068 0.067 -0.077 l 0.012 -0.009 c 0.01 0.006 0.023 0.017 0.041 0.034 c 0.057 0.052 0.125 0.135 0.212 0.263 a 7.8 7.8 0 0 1 0.168 0.259 l 0.088 0.14 c 0.121 0.235 0.49 0.897 0.946 1.67 L 9.22 15.72 a 0.75 0.75 0 1 0 1.06 1.06 l 2.662 -2.661 a 38.558 38.558 0 0 1 0.816 1.451 l 0.05 0.087 c 0.13 0.221 0.35 0.597 0.64 0.872 c 0.18 0.171 0.422 0.34 0.733 0.422 a 1.606 1.606 0 0 0 1.056 -0.096 c 0.356 -0.178 0.576 -0.408 0.804 -0.779 a 0.75 0.75 0 0 0 -1.28 -0.783 a 0.952 0.952 0 0 1 -0.126 0.176 a 0.15 0.15 0 0 1 -0.032 0.025 a 0.186 0.186 0 0 1 -0.033 0.006 h -0.007 s -0.007 -0.002 -0.02 -0.01 a 0.387 0.387 0 0 1 -0.063 -0.05 a 1.465 1.465 0 0 1 -0.203 -0.257 a 6.014 6.014 0 0 1 -0.158 -0.258 l -0.06 -0.103 a 46.35 46.35 0 0 0 -1.021 -1.799 l 2.742 -2.743 Z m -6.18 0.242 Z m -0.002 0 h 0.002 Z" stroke-linecap="round"/>
</g>
</svg>