<svg xmlns="http://www.w3.org/2000/svg" xmlns:xlink="http://www.w3.org/1999/xlink" version="1.1" width="1000" height="1000" viewBox="0 0 1000 1000" xml:space="preserve">
<desc>Created with Fabric.js 3.5.0</desc>
<defs>
</defs>
<rect x="0" y="0" width="100%" height="100%" fill="rgba(255,255,255,0)"/>
<g transform="matrix(0 3.3634 -3.3634 0 500 500)" id="374500" clip-path="url(#CLIPPATH_19)">
<clipPath id="CLIPPATH_19">
	<rect transform="matrix(1 0 0 1 0 0.0003)" id="clip0_302_60" x="-79" y="-79" rx="0" ry="0" width="158" height="158"/>
</clipPath>
<path style="stroke: none; stroke-width: 0; stroke-dasharray: none; stroke-linecap: butt; stroke-dashoffset: 0; stroke-linejoin: miter; stroke-miterlimit: 4; is-custom-font: none; font-file-url: none; fill: rgb(141,212,157); fill-rule: nonzero; opacity: 1;" vector-effect="non-scaling-stroke" transform=" translate(-79, -78.9997)" d="M 155.762 70.7044 L 124.67 16.7491 C 121.674 11.5327 116.117 8.31686 110.102 8.31844 H 47.9186 C 41.9447 8.27481 36.3974 11.4081 33.3507 16.5467 L 2.25885 70.5021 C -0.753053 75.7188 -0.753053 82.1463 2.25885 87.363 L 33.3507 141.318 C 36.3737 146.499 41.9207 149.683 47.9186 149.681 H 110.102 C 116.058 149.725 121.596 146.623 124.67 141.521 L 155.762 87.5654 C 158.746 82.3414 158.746 75.9287 155.762 70.7044 Z" stroke-linecap="round"/>
</g>
<g transform="matrix(12.7565 0 0 12.7565 499.9997 499.9997)" id="201810">
<path style="stroke: none; stroke-width: 1; stroke-dasharray: none; stroke-linecap: butt; stroke-dashoffset: 0; stroke-linejoin: miter; stroke-miterlimit: 4; is-custom-font: none; font-file-url: none; fill: rgb(255,255,255); fill-rule: nonzero; opacity: 1;" vector-effect="non-scaling-stroke" transform=" translate(-10, -10)" d="M 10.6 9 c -0.4 -0.1 -0.8 -0.3 -1.1 -0.6 c -0.3 -0.1 -0.4 -0.4 -0.4 -0.6 c 0 -0.2 0.1 -0.5 0.3 -0.6 c 0.3 -0.2 0.6 -0.4 0.9 -0.3 c 0.6 0 1.1 0.3 1.4 0.7 l 0.9 -1.2 c -0.3 -0.3 -0.6 -0.5 -0.9 -0.7 c -0.3 -0.2 -0.7 -0.3 -1.1 -0.3 V 4 H 9.4 v 1.4 c -0.5 0.1 -1 0.4 -1.4 0.8 c -0.4 0.5 -0.7 1.1 -0.6 1.7 c 0 0.6 0.2 1.2 0.6 1.6 c 0.5 0.5 1.2 0.8 1.8 1.1 c 0.3 0.1 0.7 0.3 1 0.5 c 0.2 0.2 0.3 0.5 0.3 0.8 c 0 0.3 -0.1 0.6 -0.3 0.9 c -0.3 0.3 -0.7 0.4 -1 0.4 c -0.4 0 -0.9 -0.1 -1.2 -0.4 c -0.3 -0.2 -0.6 -0.5 -0.8 -0.8 l -1 1.1 c 0.3 0.4 0.6 0.7 1 1 c 0.5 0.3 1.1 0.6 1.7 0.6 V 16 h 1.1 v -1.5 c 0.6 -0.1 1.1 -0.4 1.5 -0.8 c 0.5 -0.5 0.8 -1.3 0.8 -2 c 0 -0.6 -0.2 -1.3 -0.7 -1.7 c -0.5 -0.5 -1 -0.8 -1.6 -1 z M 10 2 c -4.4 0 -8 3.6 -8 8 s 3.6 8 8 8 s 8 -3.6 8 -8 s -3.6 -8 -8 -8 z m 0 14.9 c -3.8 0 -6.9 -3.1 -6.9 -6.9 S 6.2 3.1 10 3.1 s 6.9 3.1 6.9 6.9 s -3.1 6.9 -6.9 6.9 z" stroke-linecap="round"/>
</g>
</svg>