<svg xmlns="http://www.w3.org/2000/svg" xmlns:xlink="http://www.w3.org/1999/xlink" version="1.1" width="1000" height="1000" viewBox="0 0 1000 1000" xml:space="preserve">
<desc>Created with Fabric.js 3.5.0</desc>
<defs>
</defs>
<rect x="0" y="0" width="100%" height="100%" fill="rgba(255,255,255,0)"/>
<g transform="matrix(0 3.7586 -3.6128 0 499.999 500.0016)" id="191375" clip-path="url(#CLIPPATH_3)">
<clipPath id="CLIPPATH_3">
	<rect transform="matrix(1 0 0 1 0 0.0003)" id="clip0_302_60" x="-79" y="-79" rx="0" ry="0" width="158" height="158"/>
</clipPath>
<path style="stroke: none; stroke-width: 1; stroke-dasharray: none; stroke-linecap: butt; stroke-dashoffset: 0; stroke-linejoin: miter; stroke-miterlimit: 4; is-custom-font: none; font-file-url: none; fill: rgb(241,43,88); fill-rule: nonzero; opacity: 1;" vector-effect="non-scaling-stroke" transform=" translate(-79, -78.9997)" d="M 155.762 70.7044 L 124.67 16.7491 C 121.674 11.5327 116.117 8.31686 110.102 8.31844 H 47.9186 C 41.9447 8.27481 36.3974 11.4081 33.3507 16.5467 L 2.25885 70.5021 C -0.753053 75.7188 -0.753053 82.1463 2.25885 87.363 L 33.3507 141.318 C 36.3737 146.499 41.9207 149.683 47.9186 149.681 H 110.102 C 116.058 149.725 121.596 146.623 124.67 141.521 L 155.762 87.5654 C 158.746 82.3414 158.746 75.9287 155.762 70.7044 Z" stroke-linecap="round"/>
</g>
<g transform="matrix(16.7683 0 0 16.7683 500.0001 500.0001)" id="970524">
<g style="" vector-effect="non-scaling-stroke">
		<g transform="matrix(0.6667 0 0 0.6667 0.0002 1.4603)">
<path style="stroke: none; stroke-width: 1; stroke-dasharray: none; stroke-linecap: butt; stroke-dashoffset: 0; stroke-linejoin: miter; stroke-miterlimit: 4; is-custom-font: none; font-file-url: none; fill: rgb(255,255,255); fill-rule: nonzero; opacity: 1;" transform=" translate(-12, -14.19)" d="M 7 19 c -1.1 0 -2 0.9 -2 2 h 14 c 0 -1.1 -0.9 -2 -2 -2 h -4 v -2 h 3 c 1.1 0 2 -0.9 2 -2 h -8 c -1.66 0 -3 -1.34 -3 -3 c 0 -1.09 0.59 -2.04 1.46 -2.56 C 8.17 9.03 8 8.54 8 8 c 0 -0.21 0.04 -0.42 0.09 -0.62 A 5.01 5.01 0 0 0 5 12 c 0 2.76 2.24 5 5 5 v 2 H 7 z" stroke-linecap="round"/>
</g>
		<g transform="matrix(0.6667 0 0 0.6667 0.8334 -3.3031)">
<path style="stroke: none; stroke-width: 1; stroke-dasharray: none; stroke-linecap: butt; stroke-dashoffset: 0; stroke-linejoin: miter; stroke-miterlimit: 4; is-custom-font: none; font-file-url: none; fill: rgb(255,255,255); fill-rule: nonzero; opacity: 1;" transform=" translate(-13.25, -7.045)" d="M 10.56 5.51 C 11.91 5.54 13 6.64 13 8 c 0 0.75 -0.33 1.41 -0.85 1.87 l 0.59 1.62 l 0.94 -0.34 l 0.34 0.94 l 1.88 -0.68 l -0.34 -0.94 l 0.94 -0.34 l -2.74 -7.53 l -0.94 0.34 l -0.34 -0.94 l -1.88 0.68 l 0.34 0.94 l -0.94 0.35 l 0.56 1.54 z" stroke-linecap="round"/>
</g>
		<g transform="matrix(0.6667 0 0 0.6667 -0.9999 -2.6666)">
<circle style="stroke: none; stroke-width: 1; stroke-dasharray: none; stroke-linecap: butt; stroke-dashoffset: 0; stroke-linejoin: miter; stroke-miterlimit: 4; is-custom-font: none; font-file-url: none; fill: rgb(255,255,255); fill-rule: nonzero; opacity: 1;" cx="0" cy="0" r="1.5"/>
</g>
</g>
</g>
</svg>